<?xml version="1.0" encoding="UTF-8"?>
<svg id="Capa_2" data-name="Capa 2" xmlns="http://www.w3.org/2000/svg" viewBox="0 0 925.73 1080">
  <defs>
    <style>
      .cls-1 {
        fill: #0065bb;
      }
    </style>
  </defs>
  <g id="Capa_1-2" data-name="Capa 1">
    <g>
      <g>
        <path class="cls-1" d="M378.79,943.64v-3.92c0-4.73-2.54-6.92-8.53-6.92h-47.17c-1.04,0-1.5.46-1.5,1.5v16.15h47.28c7.61,0,9.92-2.31,9.92-6.8Z"/>
        <path class="cls-1" d="M467.01,947.91h-29.41c-9.92,0-12.57,2.88-12.57,12.57v10.96c0,9.69,2.65,12.69,12.57,12.69h29.41c10.03,0,12.69-3,12.69-12.69v-10.96c0-9.69-2.65-12.57-12.69-12.57Z"/>
        <path class="cls-1" d="M368.87,963.02h-47.28v17.18c0,1.04.46,1.5,1.5,1.5h47.28c6.11,0,8.53-2.19,8.53-7.04v-4.38c0-4.73-2.42-7.27-10.03-7.27Z"/>
        <path class="cls-1" d="M523.18,976.51v2.42c0,4.15,1.73,6,6.46,6h38.87c2.42,0,3.34-1.04,3.34-3.92v-10.15h-42.21c-4.73,0-6.46,1.96-6.46,5.65Z"/>
        <path class="cls-1" d="M844.68,0H81.05C36.29,0,0,36.28,0,81.04v921.81c0,42.6,34.55,77.15,77.15,77.15h771.45c42.59,0,77.13-34.55,77.13-77.15V81.04c0-44.76-36.29-81.04-81.05-81.04ZM252.17,930.73c0,1.73-.81,2.65-2.54,2.65h-51.32c-11.88,0-15.34,3.46-15.34,15.68v16.38c0,12.22,3.46,15.8,15.34,15.8h51.32c1.73,0,2.54.81,2.54,2.54v11.3c0,1.73-.81,2.54-2.54,2.54h-52.01c-23.3,0-32.29-8.3-32.29-30.45v-19.84c0-22.14,9-30.45,32.29-30.45h52.01c1.73,0,2.54.81,2.54,2.54v11.3ZM293.68,962.1c0,1.38-.69,2.08-2.08,2.08h-34.71c-1.38,0-2.08-.69-2.08-2.08v-8.3c0-1.38.69-2.08,2.08-2.08h34.71c1.38,0,2.08.69,2.08,2.08v8.3ZM396.32,977.67c0,12.22-5.07,19.95-20.41,19.95h-68.5c-2.31,0-3.46-1.15-3.46-3.46v-73.81c0-2.31,1.15-3.46,3.46-3.46h66.43c15.92,0,21.91,6.23,21.91,19.03v5.54c0,6.57-2.54,11.42-7.38,14.65,5.42,3.11,7.96,8.07,7.96,14.88v6.69ZM496.07,974.32c0,16.72-6.69,23.3-27.45,23.3h-32.64c-20.76,0-27.45-6.57-27.45-23.3v-16.61c0-16.72,6.69-23.41,27.45-23.41h32.64c20.76,0,27.45,6.69,27.45,23.41v16.61ZM588.33,988.39c0,7.5-1.85,9.23-8.53,9.23h-54.9c-13.61,0-17.76-4.96-17.76-16.38v-5.54c0-9.69,4.15-15.11,17.76-15.11h46.94v-2.19c0-7.38-2.54-10.26-12.57-10.26h-48.21c-1.38,0-2.08-.58-2.08-2.08v-9.69c0-1.38.69-2.08,2.08-2.08h49.82c20.76,0,27.45,6.69,27.45,23.41v30.68ZM662.14,946.07c0,1.5-.69,2.08-2.08,2.08h-30.68c-9.92,0-12.57,3-12.57,12.69v34.25c0,1.73-.81,2.54-2.54,2.54h-11.3c-1.73,0-2.65-.81-2.65-2.54v-37.37c0-16.72,6.69-23.41,27.45-23.41h32.29c1.38,0,2.08.69,2.08,2.08v9.69ZM757.51,974.32c0,16.72-6.69,23.3-27.45,23.3h-32.29c-20.76,0-27.45-6.57-27.45-23.3v-16.61c0-16.72,6.69-23.41,27.45-23.41h43.36v-20.64c0-1.73.81-2.54,2.54-2.54h11.3c1.73,0,2.54.81,2.54,2.54v60.66ZM895.73,848.57H30V81.04c0-28.15,22.9-51.04,51.05-51.04h763.63c28.15,0,51.05,22.89,51.05,51.04v767.53Z"/>
        <path class="cls-1" d="M686.82,960.83v10.26c0,9.69,2.65,12.69,12.57,12.69h29.06c10.03,0,12.69-3,12.69-12.69v-22.95h-41.75c-9.92,0-12.57,3-12.57,12.69Z"/>
      </g>
      <path class="cls-1" d="M757.93,133.73c12.45,0,18.26,5.81,18.26,18.26v81.34c0,12.45-5.81,19.09-18.26,19.09h-369.35c-85.49,0-110.39,24.9-110.39,112.88v117.86c0,87.98,24.9,113.71,110.39,113.71h369.35c12.45,0,18.26,5.81,18.26,18.26v81.34c0,12.45-5.81,18.26-18.26,18.26h-374.33c-167.66,0-232.4-59.76-232.4-219.12v-142.76c0-159.36,64.74-219.12,232.4-219.12h374.33Z"/>
    </g>
  </g>
</svg>