<?xml version="1.0" encoding="UTF-8"?>
<svg id="Capa_1" data-name="Capa 1" xmlns="http://www.w3.org/2000/svg" viewBox="0 0 925.72 1080">
  <defs>
    <style>
      .cls-1 {
        fill: #fff;
        stroke-width: 0px;
      }
    </style>
  </defs>
  <path class="cls-1" d="m541.86,138.53c180.11,0,253.79,71.23,253.79,230.87v111.34c0,159.64-73.68,230.87-253.79,230.87H154.63c-16.37,0-24.56-8.19-24.56-24.56V163.09c0-16.37,8.19-24.56,24.56-24.56h387.24Zm-262.8,426.53c0,8.19,3.27,12.28,9.82,12.28h249.7c83.5,0,108.07-24.56,108.07-109.7v-85.14c0-85.14-24.56-108.88-108.07-108.88h-249.7c-6.55,0-9.82,3.27-9.82,11.46v279.99Z"/>
  <g>
    <path class="cls-1" d="m692.06,975.89v2.22c0,3.04,1.29,4.45,4.68,4.45h36.51c2.11,0,2.92-.94,2.92-3.28v-7.72h-39.43c-3.39,0-4.68,1.52-4.68,4.33Z"/>
    <path class="cls-1" d="m196.93,935.18h-35.69c-.94,0-1.4.47-1.4,1.64v40.02c0,1.17.47,1.75,1.4,1.75h35.69c11.93,0,15.45-3.51,15.45-15.68v-12.17c0-12.17-3.51-15.56-15.45-15.56Z"/>
    <path class="cls-1" d="m844.68,0H81.04C36.28,0,0,36.28,0,81.04v921.81c0,42.6,34.54,77.15,77.14,77.15h771.45c42.59,0,77.13-34.55,77.13-77.15V81.04C925.72,36.28,889.43,0,844.68,0ZM233.67,964.78c0,22.82-10.53,33-36.27,33h-55.34c-2.34,0-3.51-1.17-3.51-3.51v-74.88c0-2.34,1.17-3.51,3.51-3.51h55.34c25.74,0,36.27,10.18,36.27,33v15.91Zm48.67-2.46c0,1.64-.82,2.46-2.46,2.46h-34.87c-1.64,0-2.46-.82-2.46-2.46v-10.06c0-1.64.82-2.46,2.46-2.46h34.87c1.64,0,2.46.82,2.46,2.46v10.06Zm97.93-29.72c0,1.99-1.05,3.04-3.04,3.04h-52.07c-10.18,0-12.64,2.69-12.64,13.22v15.91c0,10.53,2.46,13.22,12.64,13.22h52.07c1.99,0,3.04,1.05,3.04,3.04v13.69c0,1.99-1.05,3.04-3.04,3.04h-52.89c-23.99,0-33.11-8.42-33.11-30.89v-20.12c0-22.46,9.13-30.89,33.11-30.89h52.89c1.99,0,3.04,1.05,3.04,3.04v13.69Zm74.76,14.16c0,1.64-.82,2.46-2.46,2.46h-30.77c-8.42,0-10.41,2.46-10.41,11.35v34.17c0,1.99-1.05,3.04-3.04,3.04h-13.69c-1.99,0-3.04-1.05-3.04-3.04v-38.03c0-17.2,6.9-23.99,28.2-23.99h32.76c1.64,0,2.46.82,2.46,2.46v11.58Zm28.55,47.97c0,1.99-1.05,3.04-3.16,3.04h-13.57c-2.11,0-3.04-1.05-3.04-3.04v-58.97c0-2.11.94-3.04,3.04-3.04h13.57c2.11,0,3.16.94,3.16,3.04v58.97Zm0-71.96c0,2.11-1.05,3.04-3.04,3.04h-13.69c-1.99,0-3.04-.94-3.04-3.04v-11.47c0-1.99,1.05-3.04,3.04-3.04h13.69c1.99,0,3.04,1.05,3.04,3.04v11.47Zm63.41,72.54c0,1.64-.82,2.46-2.46,2.46h-14.98c-18.84,0-23.87-6.79-23.87-23.63v-25.16h-10.88c-1.64,0-2.46-.82-2.46-2.46v-11.35c0-1.64.82-2.46,2.46-2.46h10.88v-15.33c0-2.11.94-3.04,3.04-3.04h13.57c2.11,0,3.04.94,3.04,3.04v15.33h18.49c1.64,0,2.46.82,2.46,2.46v11.35c0,1.64-.82,2.46-2.46,2.46h-18.49v25.16c0,4.91,1.76,7.37,7.61,7.37h11.58c1.64,0,2.46.82,2.46,2.46v11.35Zm28.66-.58c0,1.99-1.05,3.04-3.16,3.04h-13.57c-2.11,0-3.04-1.05-3.04-3.04v-58.97c0-2.11.94-3.04,3.04-3.04h13.57c2.11,0,3.16.94,3.16,3.04v58.97Zm0-71.96c0,2.11-1.05,3.04-3.04,3.04h-13.69c-1.99,0-3.04-.94-3.04-3.04v-11.47c0-1.99,1.05-3.04,3.04-3.04h13.69c1.99,0,3.04,1.05,3.04,3.04v11.47Zm89.04,23.99c0,1.64-.7,2.46-2.46,2.46h-45.16c-8.42,0-10.41,2.46-10.41,11.35v9.36c0,8.89,1.99,11.23,10.41,11.23h45.16c1.75,0,2.46.82,2.46,2.46v11.7c0,1.64-.7,2.46-2.46,2.46h-47.15c-21.29,0-28.08-6.79-28.08-23.99v-17.08c0-17.2,6.79-23.99,28.08-23.99h47.15c1.75,0,2.46.82,2.46,2.46v11.58Zm91.26,41.54c0,7.72-1.87,9.48-8.66,9.48h-56.28c-14.04,0-18.37-5.03-18.37-16.85v-6.08c0-9.83,4.33-15.44,18.37-15.44h45.16v-1.87c0-5.97-1.99-8.31-10.41-8.31h-48.67c-1.64,0-2.46-.82-2.46-2.46v-11.58c0-1.64.82-2.46,2.46-2.46h50.66c21.29,0,28.2,6.79,28.2,23.99v31.59Zm31.7,6.44c0,1.99-1.05,3.04-3.16,3.04h-13.57c-2.11,0-3.04-1.05-3.04-3.04v-81.67c0-1.99.94-3.04,3.04-3.04h13.57c2.11,0,3.16,1.05,3.16,3.04v81.67Zm108.07-146.16H30V81.04c0-28.15,22.9-51.04,51.04-51.04h763.64c28.14,0,51.04,22.89,51.04,51.04v767.53Z"/>
  </g>
</svg>