<?xml version="1.0" encoding="UTF-8"?>
<svg id="Capa_1" data-name="Capa 1" xmlns="http://www.w3.org/2000/svg" viewBox="0 0 925.72 1080">
  <defs>
    <style>
      .cls-1 {
        fill: #fff;
        stroke-width: 0px;
      }
    </style>
  </defs>
  <path class="cls-1" d="m420.38,932.87h-47.17c-1.04,0-1.5.46-1.5,1.5v16.14h47.28c7.62,0,9.92-2.3,9.92-6.8v-3.92c0-4.73-2.53-6.92-8.53-6.92Zm-1.39,30.21h-47.28v17.19c0,1.04.46,1.5,1.5,1.5h47.28c6.12,0,8.54-2.19,8.54-7.04v-4.38c0-4.73-2.42-7.27-10.04-7.27Zm60.66,7.85c-4.73,0-6.45,1.96-6.45,5.65v2.42c0,4.15,1.72,6,6.45,6h38.87c2.42,0,3.34-1.04,3.34-3.93v-10.14h-42.21Zm0,0c-4.73,0-6.45,1.96-6.45,5.65v2.42c0,4.15,1.72,6,6.45,6h38.87c2.42,0,3.34-1.04,3.34-3.93v-10.14h-42.21Zm-60.66-7.85h-47.28v17.19c0,1.04.46,1.5,1.5,1.5h47.28c6.12,0,8.54-2.19,8.54-7.04v-4.38c0-4.73-2.42-7.27-10.04-7.27Zm1.39-30.21h-47.17c-1.04,0-1.5.46-1.5,1.5v16.14h47.28c7.62,0,9.92-2.3,9.92-6.8v-3.92c0-4.73-2.53-6.92-8.53-6.92Zm-157.65.11h-34.25c-11.88,0-15.34,3.58-15.34,15.69v15.34c0,12.11,3.46,15.68,15.34,15.68h34.25c11.88,0,15.34-3.57,15.34-15.68v-15.34c0-12.11-3.46-15.69-15.34-15.69Zm157.65-.11h-47.17c-1.04,0-1.5.46-1.5,1.5v16.14h47.28c7.62,0,9.92-2.3,9.92-6.8v-3.92c0-4.73-2.53-6.92-8.53-6.92Zm-1.39,30.21h-47.28v17.19c0,1.04.46,1.5,1.5,1.5h47.28c6.12,0,8.54-2.19,8.54-7.04v-4.38c0-4.73-2.42-7.27-10.04-7.27Zm60.66,7.85c-4.73,0-6.45,1.96-6.45,5.65v2.42c0,4.15,1.72,6,6.45,6h38.87c2.42,0,3.34-1.04,3.34-3.93v-10.14h-42.21Zm0,0c-4.73,0-6.45,1.96-6.45,5.65v2.42c0,4.15,1.72,6,6.45,6h38.87c2.42,0,3.34-1.04,3.34-3.93v-10.14h-42.21Zm-60.66-7.85h-47.28v17.19c0,1.04.46,1.5,1.5,1.5h47.28c6.12,0,8.54-2.19,8.54-7.04v-4.38c0-4.73-2.42-7.27-10.04-7.27Zm1.39-30.21h-47.17c-1.04,0-1.5.46-1.5,1.5v16.14h47.28c7.62,0,9.92-2.3,9.92-6.8v-3.92c0-4.73-2.53-6.92-8.53-6.92Zm-157.65.11h-34.25c-11.88,0-15.34,3.58-15.34,15.69v15.34c0,12.11,3.46,15.68,15.34,15.68h34.25c11.88,0,15.34-3.57,15.34-15.68v-15.34c0-12.11-3.46-15.69-15.34-15.69Zm0,0h-34.25c-11.88,0-15.34,3.58-15.34,15.69v15.34c0,12.11,3.46,15.68,15.34,15.68h34.25c11.88,0,15.34-3.57,15.34-15.68v-15.34c0-12.11-3.46-15.69-15.34-15.69Zm157.65-.11h-47.17c-1.04,0-1.5.46-1.5,1.5v16.14h47.28c7.62,0,9.92-2.3,9.92-6.8v-3.92c0-4.73-2.53-6.92-8.53-6.92Zm-1.39,30.21h-47.28v17.19c0,1.04.46,1.5,1.5,1.5h47.28c6.12,0,8.54-2.19,8.54-7.04v-4.38c0-4.73-2.42-7.27-10.04-7.27Zm60.66,7.85c-4.73,0-6.45,1.96-6.45,5.65v2.42c0,4.15,1.72,6,6.45,6h38.87c2.42,0,3.34-1.04,3.34-3.93v-10.14h-42.21Zm0,0c-4.73,0-6.45,1.96-6.45,5.65v2.42c0,4.15,1.72,6,6.45,6h38.87c2.42,0,3.34-1.04,3.34-3.93v-10.14h-42.21Zm-60.66-7.85h-47.28v17.19c0,1.04.46,1.5,1.5,1.5h47.28c6.12,0,8.54-2.19,8.54-7.04v-4.38c0-4.73-2.42-7.27-10.04-7.27Zm1.39-30.21h-47.17c-1.04,0-1.5.46-1.5,1.5v16.14h47.28c7.62,0,9.92-2.3,9.92-6.8v-3.92c0-4.73-2.53-6.92-8.53-6.92Zm-157.65.11h-34.25c-11.88,0-15.34,3.58-15.34,15.69v15.34c0,12.11,3.46,15.68,15.34,15.68h34.25c11.88,0,15.34-3.57,15.34-15.68v-15.34c0-12.11-3.46-15.69-15.34-15.69Zm0,0h-34.25c-11.88,0-15.34,3.58-15.34,15.69v15.34c0,12.11,3.46,15.68,15.34,15.68h34.25c11.88,0,15.34-3.57,15.34-15.68v-15.34c0-12.11-3.46-15.69-15.34-15.69Zm157.65-.11h-47.17c-1.04,0-1.5.46-1.5,1.5v16.14h47.28c7.62,0,9.92-2.3,9.92-6.8v-3.92c0-4.73-2.53-6.92-8.53-6.92Zm-1.39,30.21h-47.28v17.19c0,1.04.46,1.5,1.5,1.5h47.28c6.12,0,8.54-2.19,8.54-7.04v-4.38c0-4.73-2.42-7.27-10.04-7.27Zm60.66,7.85c-4.73,0-6.45,1.96-6.45,5.65v2.42c0,4.15,1.72,6,6.45,6h38.87c2.42,0,3.34-1.04,3.34-3.93v-10.14h-42.21Zm0,0c-4.73,0-6.45,1.96-6.45,5.65v2.42c0,4.15,1.72,6,6.45,6h38.87c2.42,0,3.34-1.04,3.34-3.93v-10.14h-42.21Zm-60.66-7.85h-47.28v17.19c0,1.04.46,1.5,1.5,1.5h47.28c6.12,0,8.54-2.19,8.54-7.04v-4.38c0-4.73-2.42-7.27-10.04-7.27Zm1.39-30.21h-47.17c-1.04,0-1.5.46-1.5,1.5v16.14h47.28c7.62,0,9.92-2.3,9.92-6.8v-3.92c0-4.73-2.53-6.92-8.53-6.92Zm-157.65.11h-34.25c-11.88,0-15.34,3.58-15.34,15.69v15.34c0,12.11,3.46,15.68,15.34,15.68h34.25c11.88,0,15.34-3.57,15.34-15.68v-15.34c0-12.11-3.46-15.69-15.34-15.69Zm0,0h-34.25c-11.88,0-15.34,3.58-15.34,15.69v15.34c0,12.11,3.46,15.68,15.34,15.68h34.25c11.88,0,15.34-3.57,15.34-15.68v-15.34c0-12.11-3.46-15.69-15.34-15.69Zm157.65-.11h-47.17c-1.04,0-1.5.46-1.5,1.5v16.14h47.28c7.62,0,9.92-2.3,9.92-6.8v-3.92c0-4.73-2.53-6.92-8.53-6.92Zm-1.39,30.21h-47.28v17.19c0,1.04.46,1.5,1.5,1.5h47.28c6.12,0,8.54-2.19,8.54-7.04v-4.38c0-4.73-2.42-7.27-10.04-7.27Zm60.66,7.85c-4.73,0-6.45,1.96-6.45,5.65v2.42c0,4.15,1.72,6,6.45,6h38.87c2.42,0,3.34-1.04,3.34-3.93v-10.14h-42.21Zm0,0c-4.73,0-6.45,1.96-6.45,5.65v2.42c0,4.15,1.72,6,6.45,6h38.87c2.42,0,3.34-1.04,3.34-3.93v-10.14h-42.21Zm-60.66-7.85h-47.28v17.19c0,1.04.46,1.5,1.5,1.5h47.28c6.12,0,8.54-2.19,8.54-7.04v-4.38c0-4.73-2.42-7.27-10.04-7.27Zm1.39-30.21h-47.17c-1.04,0-1.5.46-1.5,1.5v16.14h47.28c7.62,0,9.92-2.3,9.92-6.8v-3.92c0-4.73-2.53-6.92-8.53-6.92Zm-157.65.11h-34.25c-11.88,0-15.34,3.58-15.34,15.69v15.34c0,12.11,3.46,15.68,15.34,15.68h34.25c11.88,0,15.34-3.57,15.34-15.68v-15.34c0-12.11-3.46-15.69-15.34-15.69Zm0,0h-34.25c-11.88,0-15.34,3.58-15.34,15.69v15.34c0,12.11,3.46,15.68,15.34,15.68h34.25c11.88,0,15.34-3.57,15.34-15.68v-15.34c0-12.11-3.46-15.69-15.34-15.69Zm157.65-.11h-47.17c-1.04,0-1.5.46-1.5,1.5v16.14h47.28c7.62,0,9.92-2.3,9.92-6.8v-3.92c0-4.73-2.53-6.92-8.53-6.92Zm-1.39,30.21h-47.28v17.19c0,1.04.46,1.5,1.5,1.5h47.28c6.12,0,8.54-2.19,8.54-7.04v-4.38c0-4.73-2.42-7.27-10.04-7.27Zm60.66,7.85c-4.73,0-6.45,1.96-6.45,5.65v2.42c0,4.15,1.72,6,6.45,6h38.87c2.42,0,3.34-1.04,3.34-3.93v-10.14h-42.21Zm0,0c-4.73,0-6.45,1.96-6.45,5.65v2.42c0,4.15,1.72,6,6.45,6h38.87c2.42,0,3.34-1.04,3.34-3.93v-10.14h-42.21Zm-60.66-7.85h-47.28v17.19c0,1.04.46,1.5,1.5,1.5h47.28c6.12,0,8.54-2.19,8.54-7.04v-4.38c0-4.73-2.42-7.27-10.04-7.27Zm1.39-30.21h-47.17c-1.04,0-1.5.46-1.5,1.5v16.14h47.28c7.62,0,9.92-2.3,9.92-6.8v-3.92c0-4.73-2.53-6.92-8.53-6.92Zm-157.65.11h-34.25c-11.88,0-15.34,3.58-15.34,15.69v15.34c0,12.11,3.46,15.68,15.34,15.68h34.25c11.88,0,15.34-3.57,15.34-15.68v-15.34c0-12.11-3.46-15.69-15.34-15.69Zm0,0h-34.25c-11.88,0-15.34,3.58-15.34,15.69v15.34c0,12.11,3.46,15.68,15.34,15.68h34.25c11.88,0,15.34-3.57,15.34-15.68v-15.34c0-12.11-3.46-15.69-15.34-15.69Zm157.65-.11h-47.17c-1.04,0-1.5.46-1.5,1.5v16.14h47.28c7.62,0,9.92-2.3,9.92-6.8v-3.92c0-4.73-2.53-6.92-8.53-6.92Zm-1.39,30.21h-47.28v17.19c0,1.04.46,1.5,1.5,1.5h47.28c6.12,0,8.54-2.19,8.54-7.04v-4.38c0-4.73-2.42-7.27-10.04-7.27Zm60.66,7.85c-4.73,0-6.45,1.96-6.45,5.65v2.42c0,4.15,1.72,6,6.45,6h38.87c2.42,0,3.34-1.04,3.34-3.93v-10.14h-42.21Zm0,0c-4.73,0-6.45,1.96-6.45,5.65v2.42c0,4.15,1.72,6,6.45,6h38.87c2.42,0,3.34-1.04,3.34-3.93v-10.14h-42.21Zm-60.66-7.85h-47.28v17.19c0,1.04.46,1.5,1.5,1.5h47.28c6.12,0,8.54-2.19,8.54-7.04v-4.38c0-4.73-2.42-7.27-10.04-7.27Zm1.39-30.21h-47.17c-1.04,0-1.5.46-1.5,1.5v16.14h47.28c7.62,0,9.92-2.3,9.92-6.8v-3.92c0-4.73-2.53-6.92-8.53-6.92Zm-157.65.11h-34.25c-11.88,0-15.34,3.58-15.34,15.69v15.34c0,12.11,3.46,15.68,15.34,15.68h34.25c11.88,0,15.34-3.57,15.34-15.68v-15.34c0-12.11-3.46-15.69-15.34-15.69Zm0,0h-34.25c-11.88,0-15.34,3.58-15.34,15.69v15.34c0,12.11,3.46,15.68,15.34,15.68h34.25c11.88,0,15.34-3.57,15.34-15.68v-15.34c0-12.11-3.46-15.69-15.34-15.69Zm157.65-.11h-47.17c-1.04,0-1.5.46-1.5,1.5v16.14h47.28c7.62,0,9.92-2.3,9.92-6.8v-3.92c0-4.73-2.53-6.92-8.53-6.92Zm-1.39,30.21h-47.28v17.19c0,1.04.46,1.5,1.5,1.5h47.28c6.12,0,8.54-2.19,8.54-7.04v-4.38c0-4.73-2.42-7.27-10.04-7.27Zm60.66,7.85c-4.73,0-6.45,1.96-6.45,5.65v2.42c0,4.15,1.72,6,6.45,6h38.87c2.42,0,3.34-1.04,3.34-3.93v-10.14h-42.21Zm0,0c-4.73,0-6.45,1.96-6.45,5.65v2.42c0,4.15,1.72,6,6.45,6h38.87c2.42,0,3.34-1.04,3.34-3.93v-10.14h-42.21Zm-60.66-7.85h-47.28v17.19c0,1.04.46,1.5,1.5,1.5h47.28c6.12,0,8.54-2.19,8.54-7.04v-4.38c0-4.73-2.42-7.27-10.04-7.27Zm1.39-30.21h-47.17c-1.04,0-1.5.46-1.5,1.5v16.14h47.28c7.62,0,9.92-2.3,9.92-6.8v-3.92c0-4.73-2.53-6.92-8.53-6.92Zm-157.65.11h-34.25c-11.88,0-15.34,3.58-15.34,15.69v15.34c0,12.11,3.46,15.68,15.34,15.68h34.25c11.88,0,15.34-3.57,15.34-15.68v-15.34c0-12.11-3.46-15.69-15.34-15.69Zm0,0h-34.25c-11.88,0-15.34,3.58-15.34,15.69v15.34c0,12.11,3.46,15.68,15.34,15.68h34.25c11.88,0,15.34-3.57,15.34-15.68v-15.34c0-12.11-3.46-15.69-15.34-15.69Zm157.65-.11h-47.17c-1.04,0-1.5.46-1.5,1.5v16.14h47.28c7.62,0,9.92-2.3,9.92-6.8v-3.92c0-4.73-2.53-6.92-8.53-6.92Zm-1.39,30.21h-47.28v17.19c0,1.04.46,1.5,1.5,1.5h47.28c6.12,0,8.54-2.19,8.54-7.04v-4.38c0-4.73-2.42-7.27-10.04-7.27Zm60.66,7.85c-4.73,0-6.45,1.96-6.45,5.65v2.42c0,4.15,1.72,6,6.45,6h38.87c2.42,0,3.34-1.04,3.34-3.93v-10.14h-42.21Zm0,0c-4.73,0-6.45,1.96-6.45,5.65v2.42c0,4.15,1.72,6,6.45,6h38.87c2.42,0,3.34-1.04,3.34-3.93v-10.14h-42.21Zm-60.66-7.85h-47.28v17.19c0,1.04.46,1.5,1.5,1.5h47.28c6.12,0,8.54-2.19,8.54-7.04v-4.38c0-4.73-2.42-7.27-10.04-7.27Zm1.39-30.21h-47.17c-1.04,0-1.5.46-1.5,1.5v16.14h47.28c7.62,0,9.92-2.3,9.92-6.8v-3.92c0-4.73-2.53-6.92-8.53-6.92Zm-157.65.11h-34.25c-11.88,0-15.34,3.58-15.34,15.69v15.34c0,12.11,3.46,15.68,15.34,15.68h34.25c11.88,0,15.34-3.57,15.34-15.68v-15.34c0-12.11-3.46-15.69-15.34-15.69Zm0,0h-34.25c-11.88,0-15.34,3.58-15.34,15.69v15.34c0,12.11,3.46,15.68,15.34,15.68h34.25c11.88,0,15.34-3.57,15.34-15.68v-15.34c0-12.11-3.46-15.69-15.34-15.69Zm157.65-.11h-47.17c-1.04,0-1.5.46-1.5,1.5v16.14h47.28c7.62,0,9.92-2.3,9.92-6.8v-3.92c0-4.73-2.53-6.92-8.53-6.92Zm-1.39,30.21h-47.28v17.19c0,1.04.46,1.5,1.5,1.5h47.28c6.12,0,8.54-2.19,8.54-7.04v-4.38c0-4.73-2.42-7.27-10.04-7.27Zm60.66,7.85c-4.73,0-6.45,1.96-6.45,5.65v2.42c0,4.15,1.72,6,6.45,6h38.87c2.42,0,3.34-1.04,3.34-3.93v-10.14h-42.21Zm0,0c-4.73,0-6.45,1.96-6.45,5.65v2.42c0,4.15,1.72,6,6.45,6h38.87c2.42,0,3.34-1.04,3.34-3.93v-10.14h-42.21Zm-60.66-7.85h-47.28v17.19c0,1.04.46,1.5,1.5,1.5h47.28c6.12,0,8.54-2.19,8.54-7.04v-4.38c0-4.73-2.42-7.27-10.04-7.27Zm9.92-19.37v-3.92c0-4.73-2.53-6.92-8.53-6.92h-47.17c-1.04,0-1.5.46-1.5,1.5v16.14h47.28c7.62,0,9.92-2.3,9.92-6.8Zm-166.18-10.73h-34.25c-11.88,0-15.34,3.58-15.34,15.69v15.34c0,12.11,3.46,15.68,15.34,15.68h34.25c11.88,0,15.34-3.57,15.34-15.68v-15.34c0-12.11-3.46-15.69-15.34-15.69ZM844.67,0H81.04C36.28,0,0,36.28,0,81.04v921.81c0,42.6,34.55,77.15,77.15,77.15h771.45c42.59,0,77.13-34.55,77.13-77.15V81.04c0-44.76-36.29-81.04-81.05-81.04ZM295.72,965.27c0,18.8-6.46,27.68-22.72,29.87l13.26,18.34c.58.81.69,2.88-1.5,2.88h-14.76c-1.96,0-2.54-.46-3.23-1.38l-13.26-19.26h-25.72c-23.3,0-32.29-8.3-32.29-30.45v-17.87c0-22.14,8.99-30.45,32.29-30.45h35.64c23.41,0,32.29,8.31,32.29,30.45v17.87Zm48.08-3.11c0,1.39-.69,2.08-2.07,2.08h-34.71c-1.39,0-2.08-.69-2.08-2.08v-8.3c0-1.39.69-2.08,2.08-2.08h34.71c1.38,0,2.07.69,2.07,2.08v8.3Zm102.64,15.57c0,12.22-5.07,19.95-20.41,19.95h-68.5c-2.31,0-3.46-1.15-3.46-3.46v-73.81c0-2.3,1.15-3.46,3.46-3.46h66.42c15.92,0,21.92,6.23,21.92,19.03v5.54c0,6.57-2.54,11.42-7.38,14.64,5.42,3.12,7.95,8.08,7.95,14.88v6.69Zm91.91,10.73c0,7.49-1.84,9.22-8.53,9.22h-54.9c-13.6,0-17.76-4.96-17.76-16.37v-5.54c0-9.69,4.16-15.11,17.76-15.11h46.94v-2.19c0-7.38-2.54-10.26-12.57-10.26h-48.2c-1.39,0-2.08-.58-2.08-2.08v-9.69c0-1.38.69-2.07,2.08-2.07h49.82c20.75,0,27.44,6.69,27.44,23.41v30.68Zm99.99,6.68c0,1.73-.81,2.54-2.54,2.54h-11.3c-1.73,0-2.54-.81-2.54-2.54v-33.44c0-9.69-1.96-12.69-11.88-12.69h-30.67c-9.92,0-12.57,3-12.57,12.69v33.44c0,1.73-.81,2.54-2.54,2.54h-11.3c-1.73,0-2.66-.81-2.66-2.54v-37.36c0-16.72,6.69-23.41,27.45-23.41h33.1c20.76,0,27.45,6.69,27.45,23.41v37.36Zm95.02,2.54h-12.91c-1.96,0-2.66-.34-3.58-1.61l-14.07-19.38c-2.77-3.69-5.19-4.84-11.53-4.84h-22.26v23.29c0,1.73-.81,2.54-2.54,2.54h-11.3c-1.73,0-2.65-.81-2.65-2.54v-81.42c0-1.73.92-2.53,2.65-2.53h11.3c1.73,0,2.54.8,2.54,2.53v45.67h21.22c6.58,0,8.42-.57,11.42-4.84l12.92-18.22c.92-1.39,1.72-1.96,3.46-1.96h13.03c1.73,0,2.19,1.61,1.15,3.11l-14.88,20.41c-2.3,3.12-4.61,5.54-7.15,7.38,3.23,1.85,5.88,4.27,8.19,7.39l16.38,22.14c.92,1.27.34,2.88-1.39,2.88Zm162.36-149.11H29.99V81.04c0-28.15,22.9-51.04,51.05-51.04h763.63c28.15,0,51.05,22.89,51.05,51.04v767.53Zm-422.52,128.01v2.42c0,4.15,1.72,6,6.45,6h38.87c2.42,0,3.34-1.04,3.34-3.93v-10.14h-42.21c-4.73,0-6.45,1.96-6.45,5.65Zm-54.21-13.5h-47.28v17.19c0,1.04.46,1.5,1.5,1.5h47.28c6.12,0,8.54-2.19,8.54-7.04v-4.38c0-4.73-2.42-7.27-10.04-7.27Zm9.92-19.37v-3.92c0-4.73-2.53-6.92-8.53-6.92h-47.17c-1.04,0-1.5.46-1.5,1.5v16.14h47.28c7.62,0,9.92-2.3,9.92-6.8Zm-166.18-10.73h-34.25c-11.88,0-15.34,3.58-15.34,15.69v15.34c0,12.11,3.46,15.68,15.34,15.68h34.25c11.88,0,15.34-3.57,15.34-15.68v-15.34c0-12.11-3.46-15.69-15.34-15.69Zm0,0h-34.25c-11.88,0-15.34,3.58-15.34,15.69v15.34c0,12.11,3.46,15.68,15.34,15.68h34.25c11.88,0,15.34-3.57,15.34-15.68v-15.34c0-12.11-3.46-15.69-15.34-15.69Zm157.65-.11h-47.17c-1.04,0-1.5.46-1.5,1.5v16.14h47.28c7.62,0,9.92-2.3,9.92-6.8v-3.92c0-4.73-2.53-6.92-8.53-6.92Zm-1.39,30.21h-47.28v17.19c0,1.04.46,1.5,1.5,1.5h47.28c6.12,0,8.54-2.19,8.54-7.04v-4.38c0-4.73-2.42-7.27-10.04-7.27Zm60.66,7.85c-4.73,0-6.45,1.96-6.45,5.65v2.42c0,4.15,1.72,6,6.45,6h38.87c2.42,0,3.34-1.04,3.34-3.93v-10.14h-42.21Zm0,0c-4.73,0-6.45,1.96-6.45,5.65v2.42c0,4.15,1.72,6,6.45,6h38.87c2.42,0,3.34-1.04,3.34-3.93v-10.14h-42.21Zm-60.66-7.85h-47.28v17.19c0,1.04.46,1.5,1.5,1.5h47.28c6.12,0,8.54-2.19,8.54-7.04v-4.38c0-4.73-2.42-7.27-10.04-7.27Zm1.39-30.21h-47.17c-1.04,0-1.5.46-1.5,1.5v16.14h47.28c7.62,0,9.92-2.3,9.92-6.8v-3.92c0-4.73-2.53-6.92-8.53-6.92Zm-157.65.11h-34.25c-11.88,0-15.34,3.58-15.34,15.69v15.34c0,12.11,3.46,15.68,15.34,15.68h34.25c11.88,0,15.34-3.57,15.34-15.68v-15.34c0-12.11-3.46-15.69-15.34-15.69Zm0,0h-34.25c-11.88,0-15.34,3.58-15.34,15.69v15.34c0,12.11,3.46,15.68,15.34,15.68h34.25c11.88,0,15.34-3.57,15.34-15.68v-15.34c0-12.11-3.46-15.69-15.34-15.69Zm157.65-.11h-47.17c-1.04,0-1.5.46-1.5,1.5v16.14h47.28c7.62,0,9.92-2.3,9.92-6.8v-3.92c0-4.73-2.53-6.92-8.53-6.92Zm-1.39,30.21h-47.28v17.19c0,1.04.46,1.5,1.5,1.5h47.28c6.12,0,8.54-2.19,8.54-7.04v-4.38c0-4.73-2.42-7.27-10.04-7.27Zm60.66,7.85c-4.73,0-6.45,1.96-6.45,5.65v2.42c0,4.15,1.72,6,6.45,6h38.87c2.42,0,3.34-1.04,3.34-3.93v-10.14h-42.21Zm0,0c-4.73,0-6.45,1.96-6.45,5.65v2.42c0,4.15,1.72,6,6.45,6h38.87c2.42,0,3.34-1.04,3.34-3.93v-10.14h-42.21Zm-60.66-7.85h-47.28v17.19c0,1.04.46,1.5,1.5,1.5h47.28c6.12,0,8.54-2.19,8.54-7.04v-4.38c0-4.73-2.42-7.27-10.04-7.27Zm1.39-30.21h-47.17c-1.04,0-1.5.46-1.5,1.5v16.14h47.28c7.62,0,9.92-2.3,9.92-6.8v-3.92c0-4.73-2.53-6.92-8.53-6.92Zm-157.65.11h-34.25c-11.88,0-15.34,3.58-15.34,15.69v15.34c0,12.11,3.46,15.68,15.34,15.68h34.25c11.88,0,15.34-3.57,15.34-15.68v-15.34c0-12.11-3.46-15.69-15.34-15.69Zm0,0h-34.25c-11.88,0-15.34,3.58-15.34,15.69v15.34c0,12.11,3.46,15.68,15.34,15.68h34.25c11.88,0,15.34-3.57,15.34-15.68v-15.34c0-12.11-3.46-15.69-15.34-15.69Zm157.65-.11h-47.17c-1.04,0-1.5.46-1.5,1.5v16.14h47.28c7.62,0,9.92-2.3,9.92-6.8v-3.92c0-4.73-2.53-6.92-8.53-6.92Zm-1.39,30.21h-47.28v17.19c0,1.04.46,1.5,1.5,1.5h47.28c6.12,0,8.54-2.19,8.54-7.04v-4.38c0-4.73-2.42-7.27-10.04-7.27Zm60.66,7.85c-4.73,0-6.45,1.96-6.45,5.65v2.42c0,4.15,1.72,6,6.45,6h38.87c2.42,0,3.34-1.04,3.34-3.93v-10.14h-42.21Zm0,0c-4.73,0-6.45,1.96-6.45,5.65v2.42c0,4.15,1.72,6,6.45,6h38.87c2.42,0,3.34-1.04,3.34-3.93v-10.14h-42.21Zm-60.66-7.85h-47.28v17.19c0,1.04.46,1.5,1.5,1.5h47.28c6.12,0,8.54-2.19,8.54-7.04v-4.38c0-4.73-2.42-7.27-10.04-7.27Zm1.39-30.21h-47.17c-1.04,0-1.5.46-1.5,1.5v16.14h47.28c7.62,0,9.92-2.3,9.92-6.8v-3.92c0-4.73-2.53-6.92-8.53-6.92Zm-157.65.11h-34.25c-11.88,0-15.34,3.58-15.34,15.69v15.34c0,12.11,3.46,15.68,15.34,15.68h34.25c11.88,0,15.34-3.57,15.34-15.68v-15.34c0-12.11-3.46-15.69-15.34-15.69Zm0,0h-34.25c-11.88,0-15.34,3.58-15.34,15.69v15.34c0,12.11,3.46,15.68,15.34,15.68h34.25c11.88,0,15.34-3.57,15.34-15.68v-15.34c0-12.11-3.46-15.69-15.34-15.69Zm157.65-.11h-47.17c-1.04,0-1.5.46-1.5,1.5v16.14h47.28c7.62,0,9.92-2.3,9.92-6.8v-3.92c0-4.73-2.53-6.92-8.53-6.92Zm-1.39,30.21h-47.28v17.19c0,1.04.46,1.5,1.5,1.5h47.28c6.12,0,8.54-2.19,8.54-7.04v-4.38c0-4.73-2.42-7.27-10.04-7.27Zm60.66,7.85c-4.73,0-6.45,1.96-6.45,5.65v2.42c0,4.15,1.72,6,6.45,6h38.87c2.42,0,3.34-1.04,3.34-3.93v-10.14h-42.21Zm0,0c-4.73,0-6.45,1.96-6.45,5.65v2.42c0,4.15,1.72,6,6.45,6h38.87c2.42,0,3.34-1.04,3.34-3.93v-10.14h-42.21Zm-60.66-7.85h-47.28v17.19c0,1.04.46,1.5,1.5,1.5h47.28c6.12,0,8.54-2.19,8.54-7.04v-4.38c0-4.73-2.42-7.27-10.04-7.27Zm1.39-30.21h-47.17c-1.04,0-1.5.46-1.5,1.5v16.14h47.28c7.62,0,9.92-2.3,9.92-6.8v-3.92c0-4.73-2.53-6.92-8.53-6.92Zm-157.65.11h-34.25c-11.88,0-15.34,3.58-15.34,15.69v15.34c0,12.11,3.46,15.68,15.34,15.68h34.25c11.88,0,15.34-3.57,15.34-15.68v-15.34c0-12.11-3.46-15.69-15.34-15.69Zm0,0h-34.25c-11.88,0-15.34,3.58-15.34,15.69v15.34c0,12.11,3.46,15.68,15.34,15.68h34.25c11.88,0,15.34-3.57,15.34-15.68v-15.34c0-12.11-3.46-15.69-15.34-15.69Zm157.65-.11h-47.17c-1.04,0-1.5.46-1.5,1.5v16.14h47.28c7.62,0,9.92-2.3,9.92-6.8v-3.92c0-4.73-2.53-6.92-8.53-6.92Zm-1.39,30.21h-47.28v17.19c0,1.04.46,1.5,1.5,1.5h47.28c6.12,0,8.54-2.19,8.54-7.04v-4.38c0-4.73-2.42-7.27-10.04-7.27Zm60.66,7.85c-4.73,0-6.45,1.96-6.45,5.65v2.42c0,4.15,1.72,6,6.45,6h38.87c2.42,0,3.34-1.04,3.34-3.93v-10.14h-42.21Zm0,0c-4.73,0-6.45,1.96-6.45,5.65v2.42c0,4.15,1.72,6,6.45,6h38.87c2.42,0,3.34-1.04,3.34-3.93v-10.14h-42.21Zm-60.66-7.85h-47.28v17.19c0,1.04.46,1.5,1.5,1.5h47.28c6.12,0,8.54-2.19,8.54-7.04v-4.38c0-4.73-2.42-7.27-10.04-7.27Zm1.39-30.21h-47.17c-1.04,0-1.5.46-1.5,1.5v16.14h47.28c7.62,0,9.92-2.3,9.92-6.8v-3.92c0-4.73-2.53-6.92-8.53-6.92Zm-157.65.11h-34.25c-11.88,0-15.34,3.58-15.34,15.69v15.34c0,12.11,3.46,15.68,15.34,15.68h34.25c11.88,0,15.34-3.57,15.34-15.68v-15.34c0-12.11-3.46-15.69-15.34-15.69Zm0,0h-34.25c-11.88,0-15.34,3.58-15.34,15.69v15.34c0,12.11,3.46,15.68,15.34,15.68h34.25c11.88,0,15.34-3.57,15.34-15.68v-15.34c0-12.11-3.46-15.69-15.34-15.69Zm157.65-.11h-47.17c-1.04,0-1.5.46-1.5,1.5v16.14h47.28c7.62,0,9.92-2.3,9.92-6.8v-3.92c0-4.73-2.53-6.92-8.53-6.92Zm-1.39,30.21h-47.28v17.19c0,1.04.46,1.5,1.5,1.5h47.28c6.12,0,8.54-2.19,8.54-7.04v-4.38c0-4.73-2.42-7.27-10.04-7.27Zm60.66,7.85c-4.73,0-6.45,1.96-6.45,5.65v2.42c0,4.15,1.72,6,6.45,6h38.87c2.42,0,3.34-1.04,3.34-3.93v-10.14h-42.21Zm0,0c-4.73,0-6.45,1.96-6.45,5.65v2.42c0,4.15,1.72,6,6.45,6h38.87c2.42,0,3.34-1.04,3.34-3.93v-10.14h-42.21Zm-60.66-7.85h-47.28v17.19c0,1.04.46,1.5,1.5,1.5h47.28c6.12,0,8.54-2.19,8.54-7.04v-4.38c0-4.73-2.42-7.27-10.04-7.27Zm1.39-30.21h-47.17c-1.04,0-1.5.46-1.5,1.5v16.14h47.28c7.62,0,9.92-2.3,9.92-6.8v-3.92c0-4.73-2.53-6.92-8.53-6.92Zm-157.65.11h-34.25c-11.88,0-15.34,3.58-15.34,15.69v15.34c0,12.11,3.46,15.68,15.34,15.68h34.25c11.88,0,15.34-3.57,15.34-15.68v-15.34c0-12.11-3.46-15.69-15.34-15.69Zm0,0h-34.25c-11.88,0-15.34,3.58-15.34,15.69v15.34c0,12.11,3.46,15.68,15.34,15.68h34.25c11.88,0,15.34-3.57,15.34-15.68v-15.34c0-12.11-3.46-15.69-15.34-15.69Zm157.65-.11h-47.17c-1.04,0-1.5.46-1.5,1.5v16.14h47.28c7.62,0,9.92-2.3,9.92-6.8v-3.92c0-4.73-2.53-6.92-8.53-6.92Zm-1.39,30.21h-47.28v17.19c0,1.04.46,1.5,1.5,1.5h47.28c6.12,0,8.54-2.19,8.54-7.04v-4.38c0-4.73-2.42-7.27-10.04-7.27Zm60.66,7.85c-4.73,0-6.45,1.96-6.45,5.65v2.42c0,4.15,1.72,6,6.45,6h38.87c2.42,0,3.34-1.04,3.34-3.93v-10.14h-42.21Zm0,0c-4.73,0-6.45,1.96-6.45,5.65v2.42c0,4.15,1.72,6,6.45,6h38.87c2.42,0,3.34-1.04,3.34-3.93v-10.14h-42.21Zm-60.66-7.85h-47.28v17.19c0,1.04.46,1.5,1.5,1.5h47.28c6.12,0,8.54-2.19,8.54-7.04v-4.38c0-4.73-2.42-7.27-10.04-7.27Zm1.39-30.21h-47.17c-1.04,0-1.5.46-1.5,1.5v16.14h47.28c7.62,0,9.92-2.3,9.92-6.8v-3.92c0-4.73-2.53-6.92-8.53-6.92Zm-157.65.11h-34.25c-11.88,0-15.34,3.58-15.34,15.69v15.34c0,12.11,3.46,15.68,15.34,15.68h34.25c11.88,0,15.34-3.57,15.34-15.68v-15.34c0-12.11-3.46-15.69-15.34-15.69Zm0,0h-34.25c-11.88,0-15.34,3.58-15.34,15.69v15.34c0,12.11,3.46,15.68,15.34,15.68h34.25c11.88,0,15.34-3.57,15.34-15.68v-15.34c0-12.11-3.46-15.69-15.34-15.69Zm157.65-.11h-47.17c-1.04,0-1.5.46-1.5,1.5v16.14h47.28c7.62,0,9.92-2.3,9.92-6.8v-3.92c0-4.73-2.53-6.92-8.53-6.92Zm-1.39,30.21h-47.28v17.19c0,1.04.46,1.5,1.5,1.5h47.28c6.12,0,8.54-2.19,8.54-7.04v-4.38c0-4.73-2.42-7.27-10.04-7.27Zm60.66,7.85c-4.73,0-6.45,1.96-6.45,5.65v2.42c0,4.15,1.72,6,6.45,6h38.87c2.42,0,3.34-1.04,3.34-3.93v-10.14h-42.21Zm0,0c-4.73,0-6.45,1.96-6.45,5.65v2.42c0,4.15,1.72,6,6.45,6h38.87c2.42,0,3.34-1.04,3.34-3.93v-10.14h-42.21Zm-60.66-7.85h-47.28v17.19c0,1.04.46,1.5,1.5,1.5h47.28c6.12,0,8.54-2.19,8.54-7.04v-4.38c0-4.73-2.42-7.27-10.04-7.27Zm1.39-30.21h-47.17c-1.04,0-1.5.46-1.5,1.5v16.14h47.28c7.62,0,9.92-2.3,9.92-6.8v-3.92c0-4.73-2.53-6.92-8.53-6.92Zm-157.65.11h-34.25c-11.88,0-15.34,3.58-15.34,15.69v15.34c0,12.11,3.46,15.68,15.34,15.68h34.25c11.88,0,15.34-3.57,15.34-15.68v-15.34c0-12.11-3.46-15.69-15.34-15.69Zm157.65-.11h-47.17c-1.04,0-1.5.46-1.5,1.5v16.14h47.28c7.62,0,9.92-2.3,9.92-6.8v-3.92c0-4.73-2.53-6.92-8.53-6.92Zm-1.39,30.21h-47.28v17.19c0,1.04.46,1.5,1.5,1.5h47.28c6.12,0,8.54-2.19,8.54-7.04v-4.38c0-4.73-2.42-7.27-10.04-7.27Zm60.66,7.85c-4.73,0-6.45,1.96-6.45,5.65v2.42c0,4.15,1.72,6,6.45,6h38.87c2.42,0,3.34-1.04,3.34-3.93v-10.14h-42.21Zm0,0c-4.73,0-6.45,1.96-6.45,5.65v2.42c0,4.15,1.72,6,6.45,6h38.87c2.42,0,3.34-1.04,3.34-3.93v-10.14h-42.21Zm-60.66-7.85h-47.28v17.19c0,1.04.46,1.5,1.5,1.5h47.28c6.12,0,8.54-2.19,8.54-7.04v-4.38c0-4.73-2.42-7.27-10.04-7.27Zm1.39-30.21h-47.17c-1.04,0-1.5.46-1.5,1.5v16.14h47.28c7.62,0,9.92-2.3,9.92-6.8v-3.92c0-4.73-2.53-6.92-8.53-6.92Zm59.27,38.06c-4.73,0-6.45,1.96-6.45,5.65v2.42c0,4.15,1.72,6,6.45,6h38.87c2.42,0,3.34-1.04,3.34-3.93v-10.14h-42.21Zm0,0c-4.73,0-6.45,1.96-6.45,5.65v2.42c0,4.15,1.72,6,6.45,6h38.87c2.42,0,3.34-1.04,3.34-3.93v-10.14h-42.21Z"/>
  <path class="cls-1" d="m572.98,137.55h-220.25c-144.68,0-199.7,50.82-199.7,186.32v147.98c0,135.5,55.02,186.32,199.7,186.32h147.5l78.34,111.51c4.97,7.03,9.24,9.86,22.62,9.86h108.68c15.51,0,14.13-14.83,9.86-20.41l-79.03-105.92c93.85-15.52,131.99-69.17,131.99-181.36v-147.98c0-135.5-55.03-186.32-199.71-186.32Zm71.24,324.44c0,64.2-14.83,80.47-76.2,80.47h-210.32c-61.38,0-76.2-16.27-76.2-80.47v-128.25c0-64.21,14.82-79.72,76.2-79.72h210.32c61.37,0,76.2,15.51,76.2,79.72v128.25Z"/>
</svg>