<?xml version="1.0" encoding="UTF-8"?>
<svg id="Capa_1" data-name="Capa 1" xmlns="http://www.w3.org/2000/svg" viewBox="0 0 925.72 1080">
  <defs>
    <style>
      .cls-1 {
        fill: #fff;
      }

      .cls-1, .cls-2, .cls-3 {
        stroke-width: 0px;
      }

      .cls-2 {
        fill: #0065b8;
      }

      .cls-3 {
        fill: #8f8f8f;
      }
    </style>
  </defs>
  <path class="cls-3" d="m925.72,848.58v154.27c0,42.61-34.55,77.14-77.14,77.14H77.14c-42.6,0-77.14-34.53-77.14-77.14v-154.27h925.72Z"/>
  <path class="cls-2" d="m925.72,77.14v771.44H0V77.14C0,34.55,34.55,0,77.14,0h771.44c42.6,0,77.14,34.55,77.14,77.14"/>
  <path class="cls-1" d="m753.71,138.36c11.41,0,17.12,5.48,17.12,16.39v72.99c0,11.43-5.71,17.13-17.12,17.13h-233.87v449.79c0,10.91-5.47,16.37-16.39,16.37h-81.18c-10.93,0-16.38-5.46-16.38-16.37V244.87h-233.87c-11.43,0-17.13-5.7-17.13-17.13v-72.99c0-10.91,5.7-16.39,17.13-16.39h581.69Z"/>
  <g>
    <path class="cls-1" d="m244.75,916.91c1.72,0,2.65.81,2.65,2.53v11.3c0,1.73-.92,2.65-2.65,2.65h-36.2v61.68c0,1.72-.8,2.53-2.53,2.53h-12.56c-1.73,0-2.55-.81-2.55-2.53v-61.68h-36.19c-1.73,0-2.66-.91-2.66-2.65v-11.3c0-1.72.92-2.53,2.66-2.53h90.03Z"/>
    <path class="cls-1" d="m277.87,951.72c1.39,0,2.07.69,2.07,2.07v8.3c0,1.39-.69,2.07-2.07,2.07h-34.7c-1.37,0-2.07-.69-2.07-2.07v-8.3c0-1.39.7-2.07,2.07-2.07h34.7Z"/>
    <path class="cls-1" d="m355.58,916.91c17.64,0,24.79,8.19,24.79,23.74v8.54c0,15.56-7.15,23.74-24.79,23.74h-47.73v22.13c0,1.72-.8,2.53-2.53,2.53h-12.45c-1.73,0-2.66-.81-2.66-2.53v-74.7c0-2.31,1.16-3.46,3.46-3.46h61.91Zm-47.73,40.81h44.16c7.84,0,10.72-3.35,10.72-10.26v-4.38c0-6.92-2.88-10.26-10.72-10.26h-42.66c-1.04,0-1.5.35-1.5,1.39v23.52Z"/>
    <path class="cls-1" d="m450.51,934.31c20.75,0,27.44,6.69,27.44,23.41v16.6c0,16.72-6.69,23.28-27.44,23.28h-32.63c-20.75,0-27.43-6.57-27.43-23.28v-16.6c0-16.72,6.68-23.41,27.43-23.41h32.63Zm-43.58,37.13c0,9.68,2.66,12.68,12.57,12.68h29.39c10.04,0,12.68-3.01,12.68-12.68v-10.95c0-9.69-2.65-12.57-12.68-12.57h-29.39c-9.91,0-12.57,2.88-12.57,12.57v10.95Z"/>
    <path class="cls-1" d="m499.31,934.31c1.5,0,2.3.7,2.65,1.85l14.87,47.38c.24.59.57.81,1.16.81h.46c.69,0,1.04-.23,1.15-.81l15.57-43.68c1.5-4.16,3.22-5.54,7.38-5.54h13.71c4.16,0,5.88,1.39,7.38,5.54l15.45,43.68c.11.59.46.81,1.15.81h.46c.57,0,.92-.23,1.16-.81l14.98-47.38c.23-1.15,1.04-1.85,2.65-1.85h13.03c1.96,0,2.42,1.16,1.96,2.77l-17.53,53.37c-1.85,5.77-4.03,7.15-8.88,7.15h-14.52c-4.04,0-5.77-1.73-7.73-7.15l-15.22-42.07c-.11-.46-.46-.69-1.04-.69h-.7c-.57,0-.91.23-1.04.69l-15.09,42.07c-1.96,5.42-3.69,7.15-7.73,7.15h-14.53c-4.83,0-7.03-1.39-8.88-7.15l-17.29-53.37c-.46-1.61-.11-2.77,1.96-2.77h13.03Z"/>
    <path class="cls-1" d="m680.58,934.31c15.79,0,19.95,4.96,19.95,18.91v10.95c0,4.96-2.08,6.57-6.58,6.57h-58.21v2.77c0,7.27,2.65,10.26,12.68,10.26h48.06c1.39,0,2.08.69,2.08,2.07v9.69c0,1.39-.7,2.07-2.08,2.07h-49.69c-20.75,0-27.43-6.57-27.43-23.28v-16.6c0-16.72,6.68-23.41,27.43-23.41h33.78Zm-44.84,26.18h46.69c1.39,0,1.96-.46,1.96-1.96v-4.84c0-4.73-1.73-6.58-7.03-6.58h-28.94c-10.04,0-12.68,2.88-12.68,10.26v3.12Z"/>
    <path class="cls-1" d="m772.25,934.31c1.39,0,2.08.7,2.08,2.08v9.68c0,1.5-.7,2.07-2.08,2.07h-30.66c-9.91,0-12.56,3.01-12.56,12.68v34.24c0,1.72-.81,2.53-2.55,2.53h-11.3c-1.72,0-2.65-.81-2.65-2.53v-37.35c0-16.72,6.69-23.41,27.44-23.41h32.27Z"/>
  </g>
</svg>